<svg width="45" height="45" viewBox="0 0 45 45" fill="none" xmlns="http://www.w3.org/2000/svg">
<path d="M19.7754 0.799805C19.6523 0.852539 19.459 0.975586 19.3535 1.08105C18.9316 1.46777 18.8965 1.65234 18.8965 3.25195V4.74609H10.9248C5.95897 4.74609 2.83006 4.78125 2.6367 4.83398C2.27635 4.93066 1.81053 5.37012 1.67869 5.73926C1.53807 6.1084 1.54686 43.6201 1.68748 43.8838C1.74022 43.9893 1.84568 44.1211 1.92479 44.1826C2.03025 44.2705 6.56541 44.2881 22.4736 44.2969C33.6972 44.2969 42.9433 44.2705 43.0224 44.2441C43.4355 44.0771 43.4179 45.1318 43.4179 22.7637C43.4179 -0.553711 43.4707 1.48535 42.8203 0.984375L42.5127 0.74707L31.2539 0.729492C23.8887 0.720703 19.916 0.74707 19.7754 0.799805ZM42.0117 22.5V42.8906H38.9355H35.8594L35.8418 37.6875L35.8154 32.4756L35.6045 32.1768C35.165 31.5703 35.0859 31.5527 31.2012 31.5527C29.1797 31.5527 27.6064 31.5879 27.4306 31.6406C27.0263 31.7549 26.5605 32.2119 26.4551 32.6074C26.4023 32.792 26.3672 34.9014 26.3672 37.8984V42.8906H23.3349H20.3027V22.5V2.10938H31.1572H42.0117V22.5ZM18.8789 24.5391L18.8965 42.8906H10.9424H2.98826V24.5215V6.15234L10.9248 6.16992L18.8525 6.19629L18.8789 24.5391ZM34.4531 37.9248V42.8906H31.1133H27.7734V37.9863C27.7734 35.2881 27.7998 33.0469 27.8349 33.0205C27.8613 32.9854 29.3642 32.959 31.1748 32.959H34.4531V37.9248Z" fill="white"/>
<path d="M23.792 4.20106C23.4404 4.28895 22.9395 4.71962 22.7988 5.06239C22.7021 5.29091 22.6758 5.87977 22.6758 7.62001C22.6758 10.1776 22.7197 10.3886 23.3525 10.8104C23.6689 11.0302 23.6777 11.0302 26.0068 11.0565C28.292 11.0829 28.3535 11.0741 28.7402 10.8807C28.96 10.7665 29.2236 10.5468 29.3291 10.3798C29.5312 10.0897 29.5312 10.0282 29.5312 7.60243C29.5312 5.17665 29.5312 5.11512 29.3291 4.83387C29.2236 4.66688 28.9951 4.45594 28.8281 4.35926C28.5381 4.18348 28.3711 4.17469 26.2793 4.15712C25.0488 4.14833 23.9326 4.17469 23.792 4.20106ZM28.125 7.60243V9.66786H26.1035H24.082V7.66395C24.082 6.55653 24.1084 5.62489 24.1436 5.59852C24.1699 5.56337 25.084 5.537 26.165 5.537H28.125V7.60243Z" fill="white"/>
<path d="M33.7852 4.20985C33.3809 4.31532 33.0732 4.5702 32.8711 4.9745C32.7129 5.29969 32.6953 5.50184 32.6953 7.60243C32.6953 9.72059 32.7041 9.90516 32.8799 10.2479C32.9854 10.4765 33.1963 10.7138 33.3809 10.828C33.6973 11.0214 33.7852 11.0302 36.0352 11.0565C38.3115 11.0829 38.373 11.0741 38.7598 10.8807C38.9795 10.7665 39.2432 10.5468 39.3486 10.3798C39.5508 10.0897 39.5508 10.0282 39.5508 7.60243C39.5508 5.17665 39.5508 5.11512 39.3486 4.83387C39.2432 4.66688 39.0146 4.45594 38.8477 4.35926C38.5576 4.18348 38.3818 4.17469 36.2988 4.15712C35.0684 4.14833 33.9346 4.17469 33.7852 4.20985ZM38.1445 7.60243V9.66786H36.123H34.1016V7.66395C34.1016 6.55653 34.1279 5.62489 34.1631 5.59852C34.1895 5.56337 35.1035 5.537 36.1846 5.537H38.1445V7.60243Z" fill="white"/>
<path d="M23.7217 13.3593C23.3174 13.4735 23.0361 13.7196 22.8516 14.0976C22.6846 14.4403 22.6758 14.6337 22.6758 16.7255C22.6758 18.0966 22.7109 19.0722 22.7725 19.2216C22.8164 19.3534 22.9834 19.5907 23.1328 19.7489C23.5371 20.1708 24.0029 20.2323 26.4375 20.1972C28.7666 20.1708 28.916 20.1268 29.3291 19.5116C29.5312 19.2304 29.5312 19.1688 29.5312 16.7431C29.5312 14.3173 29.5312 14.2558 29.3291 13.9657C29.2236 13.7987 28.96 13.579 28.7402 13.4647C28.3623 13.2802 28.2656 13.2714 26.1475 13.2802C24.9434 13.2802 23.8447 13.3153 23.7217 13.3593ZM28.125 16.7431V18.8085L26.1299 18.7909L24.126 18.7645L24.0996 16.7167L24.082 14.6776H26.1035H28.125V16.7431Z" fill="white"/>
<path d="M33.7412 13.3593C33.3369 13.4735 33.0557 13.7196 32.8711 14.0976C32.7041 14.4403 32.6953 14.6337 32.6953 16.7255C32.6953 18.0966 32.7305 19.0722 32.792 19.2216C32.8359 19.3534 33.0029 19.5907 33.1523 19.7489C33.5566 20.1708 34.0225 20.2323 36.457 20.1972C38.7861 20.1708 38.9355 20.1268 39.3486 19.5116C39.5508 19.2304 39.5508 19.1688 39.5508 16.7431C39.5508 14.3173 39.5508 14.2558 39.3486 13.9657C39.2432 13.7987 38.9795 13.579 38.7598 13.4647C38.3818 13.2802 38.2852 13.2714 36.167 13.2802C34.9629 13.2802 33.8643 13.3153 33.7412 13.3593ZM38.1445 16.7431V18.8085L36.1494 18.7909L34.1455 18.7645L34.1191 16.7167L34.1016 14.6776H36.123H38.1445V16.7431Z" fill="white"/>
<path d="M23.4756 22.6055C23.2031 22.7549 23.0186 22.9395 22.8779 23.2031C22.667 23.5898 22.667 23.625 22.6934 25.9893C22.7197 28.248 22.7285 28.3887 22.9043 28.626C23.001 28.7578 23.2207 28.96 23.3789 29.0654C23.6602 29.2676 23.7217 29.2676 26.1387 29.2676C28.4502 29.2676 28.626 29.2588 28.8984 29.0918C29.0567 28.9951 29.2588 28.793 29.3555 28.6348C29.5225 28.3623 29.5313 28.1865 29.5313 25.875C29.5313 23.458 29.5313 23.3965 29.3379 23.1152C29.2236 22.957 29.0215 22.7373 28.8897 22.6406C28.6524 22.4648 28.5117 22.4561 26.2529 22.4297C23.8887 22.4033 23.8623 22.4033 23.4756 22.6055ZM28.125 25.8398V27.8613H26.1035H24.082V25.8398V23.8184H26.1035H28.125V25.8398Z" fill="white"/>
<path d="M33.4863 22.6055C33.1963 22.7549 33.0381 22.9131 32.8975 23.2031C32.7041 23.5723 32.6953 23.6865 32.6953 25.8574C32.6953 28.3535 32.7217 28.4941 33.2139 28.96L33.4951 29.2236L36.0527 29.25L38.6104 29.2764L38.9355 29.0566C39.5244 28.6699 39.5508 28.5293 39.5508 25.8398C39.5508 23.1855 39.542 23.1416 38.9619 22.7021L38.6455 22.4561L36.2637 22.4297C33.9258 22.4033 33.873 22.4121 33.4863 22.6055ZM38.1445 25.8398V27.8613H36.123H34.1016V25.8398V23.8184H36.123H38.1445V25.8398Z" fill="white"/>
<path d="M5.19434 7.92773C5.02734 8.04199 4.80762 8.24414 4.71094 8.37598C4.53516 8.61328 4.52637 8.72754 4.52637 10.9775V13.333L4.77246 13.6494C5.19434 14.2031 5.33496 14.2383 7.14551 14.2383C8.6748 14.2383 8.78027 14.2295 9.05273 14.0361C9.71191 13.5967 9.71191 13.5879 9.73828 11.1797C9.75586 9.84375 9.72949 8.88574 9.67676 8.70117C9.62402 8.52539 9.43945 8.25293 9.27246 8.08594L8.95605 7.77832L7.22461 7.75195C5.53711 7.72559 5.48437 7.72559 5.19434 7.92773ZM8.34961 10.9863V12.832H7.11914H5.88867V10.9863V9.14062H7.11914H8.34961V10.9863Z" fill="white"/>
<path d="M12.7354 7.9452C12.1641 8.34071 12.1289 8.49891 12.1289 10.9862C12.1289 13.0692 12.1377 13.2274 12.3135 13.5263C12.6738 14.1679 12.7617 14.1942 14.6777 14.2206C16.3477 14.247 16.4004 14.2382 16.6992 14.0448C16.8574 13.9306 17.0771 13.702 17.1738 13.535C17.3496 13.245 17.3584 13.0868 17.3584 10.9862C17.3584 8.88563 17.3496 8.72743 17.1738 8.43739C17.0771 8.2704 16.8662 8.04188 16.6992 7.93641C16.4268 7.74305 16.3301 7.73426 14.7305 7.73426C13.0957 7.73426 13.043 7.74305 12.7354 7.9452ZM15.9961 10.9862V12.8319H14.7656H13.5352V10.9862V9.14051H14.7656H15.9961V10.9862Z" fill="white"/>
<path d="M5.49316 16.7871C5.35254 16.8311 5.11523 16.9717 4.97461 17.1035C4.51758 17.5342 4.48242 17.7363 4.48242 20.0215C4.48242 22.0166 4.49121 22.1309 4.68457 22.5C5.05371 23.2207 5.13281 23.2471 7.11914 23.2471C8.74512 23.2471 8.87695 23.2383 9.10547 23.0625C9.71191 22.6143 9.71191 22.623 9.73828 20.1533C9.76465 18.0264 9.75586 17.8945 9.58008 17.5342C9.46582 17.2969 9.26367 17.0596 9.07031 16.9453C8.77148 16.7607 8.63965 16.7432 7.25098 16.7256C6.43359 16.7168 5.64258 16.7432 5.49316 16.7871ZM8.34961 19.9951V21.8848H7.11914H5.88867V19.9951V18.1055H7.11914H8.34961V19.9951Z" fill="white"/>
<path d="M12.9199 16.8926C12.1728 17.2793 12.1728 17.2705 12.1465 19.9424C12.1201 22.2715 12.1201 22.2891 12.3223 22.5879C12.4365 22.7549 12.665 22.9834 12.8232 23.0889C13.1045 23.2822 13.2012 23.291 14.6953 23.291C16.4883 23.291 16.7783 23.2119 17.1475 22.6143C17.3496 22.2979 17.3584 22.1924 17.3935 20.4434C17.4023 19.4414 17.3935 18.4043 17.3584 18.1406C17.2881 17.543 17.0244 17.1475 16.5234 16.8926C16.1719 16.7168 16.0137 16.6992 14.7217 16.6992C13.4297 16.6992 13.2715 16.7168 12.9199 16.8926ZM15.9785 20.0127L15.9961 21.8848H14.7656H13.5351V19.9951V18.0967L14.748 18.123L15.9521 18.1494L15.9785 20.0127Z" fill="white"/>
<path d="M5.27344 25.9541C5.00977 26.0947 4.8252 26.2793 4.68457 26.543C4.49121 26.9121 4.48242 27 4.48242 29.0391C4.48242 31.4209 4.54395 31.6846 5.10645 32.0889C5.39648 32.291 5.44922 32.2998 7.12793 32.2998H8.85059L9.1582 32.0625C9.72949 31.6318 9.75586 31.4824 9.75586 29.0303C9.75586 26.9385 9.74707 26.833 9.55371 26.499C9.43066 26.2705 9.22852 26.0771 8.96484 25.9453C8.60449 25.7695 8.45508 25.752 7.11035 25.752C5.75684 25.752 5.625 25.7695 5.27344 25.9541ZM8.34961 29.0479V30.9375H7.11914H5.88867V29.0479V27.1582H7.11914H8.34961V29.0479Z" fill="white"/>
<path d="M13.1396 25.8134C12.8672 25.8837 12.4102 26.2617 12.2607 26.5429C12.1553 26.7539 12.1289 27.2197 12.1289 29.0742C12.1289 31.289 12.1377 31.3593 12.3311 31.6406C12.7529 32.2646 12.8496 32.2998 14.5986 32.3261C16.0488 32.3525 16.2158 32.3437 16.5498 32.1767C16.752 32.08 17.0156 31.8515 17.1387 31.6669C17.3584 31.3505 17.3584 31.3066 17.3848 29.3906C17.4287 27.0966 17.3584 26.6132 16.9365 26.2089C16.7783 26.0595 16.541 25.8925 16.4092 25.8486C16.1631 25.7519 13.4912 25.7255 13.1396 25.8134ZM15.9785 29.0654L15.9961 30.9375H14.7656H13.5352V29.0478V27.1494L14.748 27.1757L15.9521 27.2021L15.9785 29.0654Z" fill="white"/>
<path d="M5.27344 34.998C4.9834 35.1475 4.8252 35.3057 4.68457 35.5957C4.49121 35.9648 4.48242 36.0791 4.48242 38.1094C4.48242 40.1484 4.49121 40.2363 4.68457 40.6055C4.8252 40.8691 5.00977 41.0537 5.27344 41.1943C5.625 41.3789 5.75684 41.3965 7.11035 41.3965C8.45508 41.3965 8.60449 41.3789 8.96484 41.2031C9.22852 41.0713 9.43066 40.8779 9.5625 40.6494C9.75586 40.3066 9.75586 40.2451 9.73828 38.0127C9.71191 35.7803 9.70312 35.7188 9.50977 35.4375C9.11426 34.8838 8.80664 34.8047 7.14551 34.8047C5.7832 34.8047 5.63379 34.8223 5.27344 34.998ZM8.34961 38.1006V39.9902H7.11914H5.88867V38.1006V36.2109H7.11914H8.34961V38.1006Z" fill="white"/>
<path d="M13.0078 34.9014C12.8848 34.9541 12.6914 35.0771 12.5859 35.1826C12.1465 35.5869 12.1289 35.7012 12.1289 38.127C12.1289 40.3418 12.1377 40.4121 12.3311 40.6934C12.7441 41.3174 12.8584 41.3525 14.4844 41.3789C15.2842 41.3965 16.0752 41.3877 16.2422 41.3525C16.7168 41.2646 17.2002 40.7637 17.3057 40.2451C17.4287 39.6826 17.4287 36.4746 17.3057 35.9473C17.2002 35.499 16.875 35.1035 16.4619 34.9277C16.1191 34.7783 13.3594 34.7607 13.0078 34.9014ZM15.9521 38.1006V39.9463L14.748 39.9727L13.5352 39.999V38.1006V36.2021L14.748 36.2285L15.9521 36.2549V38.1006Z" fill="white"/>
</svg>
