<svg width="30" height="26" viewBox="0 0 30 26" fill="none" xmlns="http://www.w3.org/2000/svg">
<path d="M29.6597 22.3807L17.0526 1.16936C16.617 0.437962 15.8497 0 15.0002 0C14.1507 0 13.3834 0.436519 12.9478 1.16936L0.340676 22.3807C-0.104977 23.1309 -0.113653 24.0299 0.316158 24.7888C0.745971 25.5476 1.52333 26 2.39304 26H27.607C28.4767 26 29.254 25.5476 29.6838 24.7888C30.1137 24.0299 30.105 23.1294 29.6593 22.3807H29.6597ZM28.7078 24.2323C28.4799 24.6341 28.0689 24.8741 27.6073 24.8741H2.39341C1.93188 24.8741 1.52083 24.6341 1.29294 24.2323C1.06506 23.8305 1.06939 23.3535 1.30592 22.956L13.9131 1.74463C14.1438 1.35725 14.5506 1.12455 15.0005 1.12455C15.4505 1.12455 15.8572 1.35581 16.088 1.74463L28.6952 22.956C28.9317 23.3535 28.9357 23.8305 28.7078 24.2323ZM15.0004 7.4061C13.8365 7.4061 12.8903 8.35429 12.8903 9.52072V14.8817C12.8903 16.0481 13.8365 16.9963 15.0004 16.9963C16.1643 16.9963 17.1104 16.0481 17.1104 14.8817V9.52072C17.1104 8.35429 16.1643 7.4061 15.0004 7.4061ZM15.9883 14.8832C15.9883 15.4296 15.5456 15.8733 15.0004 15.8733C14.4552 15.8733 14.0124 15.4296 14.0124 14.8832V9.52228C14.0124 8.9759 14.4552 8.53216 15.0004 8.53216C15.5456 8.53216 15.9883 8.9759 15.9883 9.52228V14.8832ZM15.0004 18.1787C13.8365 18.1787 12.8903 19.1269 12.8903 20.2934C12.8903 21.4598 13.8365 22.408 15.0004 22.408C16.1643 22.408 17.1104 21.4598 17.1104 20.2934C17.1104 19.1269 16.1643 18.1787 15.0004 18.1787ZM15.0004 21.2835C14.4552 21.2835 14.0124 20.8397 14.0124 20.2934C14.0124 19.747 14.4552 19.3032 15.0004 19.3032C15.5456 19.3032 15.9883 19.747 15.9883 20.2934C15.9883 20.8397 15.5456 21.2835 15.0004 21.2835Z" fill="white"/>
</svg>
